<?xml version="1.0" encoding="UTF-8" standalone="no"?>
<!-- Created with Inkscape (http://www.inkscape.org/) -->

<svg
   xmlns:dc="http://purl.org/dc/elements/1.1/"
   xmlns:cc="http://creativecommons.org/ns#"
   xmlns:rdf="http://www.w3.org/1999/02/22-rdf-syntax-ns#"
   xmlns:svg="http://www.w3.org/2000/svg"
   xmlns="http://www.w3.org/2000/svg"
   xmlns:sodipodi="http://sodipodi.sourceforge.net/DTD/sodipodi-0.dtd"
   xmlns:inkscape="http://www.inkscape.org/namespaces/inkscape"
   id="svg6468"
   version="1.1"
   inkscape:version="0.91 r13725"
   xml:space="preserve"
   width="89mm"
   height="50mm"
   viewBox="0 0 315.35433 177.16535"
   sodipodi:docname="Supplementary figure 5.svg"
   inkscape:export-filename="X:\Sergej\gut_bacteria\paper\Figures\png\Supplementary figure 5.png"
   inkscape:export-xdpi="450.08798"
   inkscape:export-ydpi="450.08798"><metadata
     id="metadata6474"><rdf:RDF><cc:Work
         rdf:about=""><dc:format>image/svg+xml</dc:format><dc:type
           rdf:resource="http://purl.org/dc/dcmitype/StillImage" /><dc:title /></cc:Work></rdf:RDF></metadata><defs
     id="defs6472"><clipPath
       clipPathUnits="userSpaceOnUse"
       id="clipPath6512"><path
         d="m 54.27,45.53 477.76,0 0,270.5 -477.76,0 0,-270.5 z"
         id="path6514"
         inkscape:connector-curvature="0" /></clipPath><clipPath
       clipPathUnits="userSpaceOnUse"
       id="clipPath112711"><path
         d="m 54.27,45.53 477.76,0 0,270.5 -477.76,0 0,-270.5 z"
         id="path112713"
         inkscape:connector-curvature="0" /></clipPath></defs><sodipodi:namedview
     pagecolor="#ffffff"
     bordercolor="#666666"
     borderopacity="1"
     objecttolerance="10"
     gridtolerance="10"
     guidetolerance="10"
     inkscape:pageopacity="0"
     inkscape:pageshadow="2"
     inkscape:window-width="1920"
     inkscape:window-height="1177"
     id="namedview6470"
     showgrid="false"
     units="mm"
     inkscape:zoom="2"
     inkscape:cx="-196.38134"
     inkscape:cy="-11.547654"
     inkscape:window-x="1912"
     inkscape:window-y="-8"
     inkscape:window-maximized="1"
     inkscape:current-layer="g6476" /><g
     id="g6476"
     inkscape:groupmode="layer"
     inkscape:label="media_preferrence"
     transform="matrix(1.25,0,0,-1.25,0,177.16533)"><g
       id="g114095"
       transform="translate(-251.67316,5.559798)"><path
         d="m 276.42055,18.060698 0,1.752527"
         style="fill:none;stroke:#000000;stroke-width:0.40000001;stroke-linecap:butt;stroke-linejoin:round;stroke-miterlimit:10;stroke-dasharray:none;stroke-opacity:1"
         id="path6594"
         inkscape:connector-curvature="0" /><path
         inkscape:connector-curvature="0"
         id="path112715"
         style="fill:#ffffff;fill-opacity:1;fill-rule:nonzero;stroke:none;stroke-width:0.40000001;stroke-miterlimit:10;stroke-dasharray:none"
         d="m 279.60533,13.128099 209.76976,0 0,118.735321 -209.76976,0 0,-118.735321 z" /><path
         inkscape:connector-curvature="0"
         id="path112717"
         style="fill:#bdbdbd;fill-opacity:0.30199998;fill-rule:nonzero;stroke:#000000;stroke-width:0.40000001;stroke-linecap:round;stroke-linejoin:round;stroke-miterlimit:10;stroke-dasharray:none;stroke-opacity:1"
         d="m 289.13753,119.29635 0.37321,0.69793 0.3732,0.66281 0.37321,0.6233 0.37321,0.60136 0.37321,0.54869 0.37321,0.52673 0.37321,0.48285 0.37321,0.44772 0.37321,0.42139 0.37321,0.36872 0.3732,0.35116 0.37321,0.29409 0.37321,0.27215 0.37321,0.23264 0.37321,0.18875 0.37321,0.17119 0.37321,0.11412 0.37321,0.0966 0.37321,0.0483 0.3732,0.0175 0.37321,-0.009 0.37321,-0.0527 0.37321,-0.0746 0.37321,-0.1229 0.37321,-0.14486 0.37321,-0.17558 0.37321,-0.21069 0.37321,-0.23264 0.37321,-0.27654 0.3732,-0.28971 0.37321,-0.32921 0.37321,-0.35115 0.37321,-0.37311 0.37321,-0.40822 0.37321,-0.417 0.37321,-0.45651 0.37321,-0.46967 0.37321,-0.49601 0.3732,-0.51796 0.37321,-0.52674 0.37321,-0.55746 0.37321,-0.56624 0.37321,-0.58819 0.37321,-0.60136 0.37321,-0.61453 0.37321,-0.63208 0.37321,-0.64087 0.3732,-0.65842 0.37321,-0.66281 0.37321,-0.67159 0.37321,-0.68476 0.37321,-0.68914 0.37321,-0.69793 0.37321,-0.70232 0.37321,-0.7067 0.37321,-0.71549 0.37321,-0.71109 0.3732,-0.71988 0.37321,-0.71987 0.37321,-0.71987 0.37321,-0.71549 0.37321,-0.71987 0.37321,-0.71549 0.37321,-0.71548 0.37321,-0.7111 0.37321,-0.71109 0.3732,-0.70232 0.37321,-0.69792 0.37321,-0.69793 0.37321,-0.68476 0.37321,-0.684757 0.37321,-0.67159 0.37321,-0.6672 0.37321,-0.662811 0.37321,-0.649642 0.3732,-0.645253 0.37321,-0.632085 0.37321,-0.627695 0.37321,-0.614526 0.37321,-0.610138 0.37321,-0.596968 0.37321,-0.58819 0.37321,-0.579411 0.37321,-0.566242 0.37321,-0.557464 0.3732,-0.548684 0.37321,-0.535516 0.37321,-0.526737 0.37321,-0.517958 0.37321,-0.50479 0.37321,-0.496011 0.37321,-0.487232 0.37321,-0.474063 0.37321,-0.465285 0.3732,-0.456505 0.37321,-0.443337 0.37321,-0.438948 0.37321,-0.425779 0.37321,-0.417 0.37321,-0.412611 0.37321,-0.395053 0.37321,-0.395052 0.37321,-0.377495 0.3732,-0.377495 0.37321,-0.364327 0.37321,-0.359937 0.37321,-0.351158 0.37321,-0.342379 0.37321,-0.33799 0.37321,-0.32921 0.37321,-0.320432 0.37321,-0.320432 0.37321,-0.307263 0.3732,-0.307263 0.37321,-0.298485 0.37321,-0.294095 0.37321,-0.289705 0.37321,-0.285316 0.37321,-0.280926 0.37321,-0.276537 0.37321,-0.272148 0.37321,-0.267758 0.3732,-0.267758 0.37321,-0.263368 0.37321,-0.25898 0.37321,-0.254589 0.37321,-0.25459 0.37321,-0.2502 0.37321,-0.2502 0.37321,-0.2502 0.37321,-0.245811 0.3732,-0.24581 0.37321,-0.241422 0.37321,-0.241421 0.37321,-0.241421 0.37321,-0.241421 0.37321,-0.241421 0.37321,-0.241421 0.37321,-0.237032 0.37321,-0.241421 0.37321,-0.237032 0.3732,-0.237032 0.37321,-0.241421 0.37321,-0.237031 0.37321,-0.241422 0.37321,-0.241421 0.37321,-0.237032 0.37321,-0.241421 0.37321,-0.241421 0.37321,-0.24581 0.3732,-0.241422 0.37321,-0.241421 0.37321,-0.24581 0.37321,-0.245811 0.37321,-0.245811 0.37321,-0.24581 0.37321,-0.250201 0.37321,-0.24581 0.37321,-0.2502 0.37321,-0.2502 0.3732,-0.250201 0.37321,-0.2502 0.37321,-0.254589 0.37321,-0.25459 0.37321,-0.2502 0.37321,-0.25459 0.37321,-0.254589 0.37321,-0.25459 0.37321,-0.258979 0.3732,-0.254589 0.37321,-0.258979 0.37321,-0.25459 0.37321,-0.258979 0.37321,-0.25459 0.37321,-0.258979 0.37321,-0.254589 0.37321,-0.258979 0.37321,-0.25898 0.3732,-0.254589 0.37321,-0.258979 0.37321,-0.25459 0.37321,-0.254589 0.37321,-0.25459 0.37321,-0.25459 0.37321,-0.254589 0.37321,-0.2502 0.37321,-0.25459 0.37321,-0.2502 0.3732,-0.2502 0.37321,-0.245811 0.36882,-0.2502 0.37321,-0.241421 0.37321,-0.245811 0.37321,-0.241421 0.37321,-0.241421 0.37321,-0.241421 0.3732,-0.237032 0.37321,-0.237032 0.37321,-0.232642 0.37321,-0.232642 0.37321,-0.228253 0.37321,-0.228253 0.37321,-0.223863 0.37321,-0.223863 0.37321,-0.219474 0.37321,-0.219474 0.3732,-0.215084 0.37321,-0.210695 0.37321,-0.210695 0.37321,-0.210695 0.37321,-0.206305 0.37321,-0.201916 0.37321,-0.197526 0.37321,-0.197527 0.37321,-0.197526 0.3732,-0.188747 0.37321,-0.193137 0.37321,-0.184358 0.37321,-0.184358 0.37321,-0.179969 0.37321,-0.175579 0.37321,-0.179968 0.37321,-0.17119 0.37321,-0.1668 0.3732,-0.1668 0.37321,-0.162411 0.37321,-0.16241 0.37321,-0.158021 0.37321,-0.158022 0.37321,-0.149242 0.37321,-0.153631 0.37321,-0.144853 0.37321,-0.144853 0.37321,-0.144853 0.3732,-0.140463 0.37321,-0.136073 0.37321,-0.136074 0.37321,-0.131685 0.37321,-0.131684 0.37321,-0.127295 0.37321,-0.127294 0.37321,-0.122906 0.37321,-0.118516 0.3732,-0.122905 0.37321,-0.114126 0.37321,-0.118516 0.37321,-0.114126 0.37321,-0.109737 0.37321,-0.114127 0.37321,-0.105347 0.37321,-0.109737 0.37321,-0.105347 0.3732,-0.105348 0.37321,-0.100958 0.37321,-0.100958 0.37321,-0.100958 0.37321,-0.100958 0.37321,-0.09657 0.37321,-0.09657 0.37321,-0.09657 0.37321,-0.09657 0.37321,-0.09218 0.3732,-0.09218 0.37321,-0.09657 0.37321,-0.09218 0.37321,-0.08779 0.37321,-0.09218 0.37321,-0.09218 0.37321,-0.08779 0.37321,-0.08779 0.37321,-0.09218 0.3732,-0.08779 0.37321,-0.08779 0.37321,-0.08779 0.37321,-0.08779 0.37321,-0.08779 0.37321,-0.08779 0.37321,-0.08779 0.37321,-0.08779 0.37321,-0.08779 0.3732,-0.0834 0.37321,-0.08779 0.37321,-0.08779 0.37321,-0.08779 0.37321,-0.08779 0.37321,-0.08779 0.37321,-0.08779 0.37321,-0.08779 0.37321,-0.08779 0.37321,-0.08779 0.3732,-0.09218 0.37321,-0.08779 0.37321,-0.08779 0.37321,-0.08779 0.37321,-0.09218 0.37321,-0.08779 0.37321,-0.09218 0.37321,-0.08779 0.37321,-0.09218 0.3732,-0.08779 0.37321,-0.09218 0.37321,-0.09218 0.37321,-0.09218 0.37321,-0.09218 0.37321,-0.09218 0.37321,-0.09218 0.37321,-0.09218 0.37321,-0.09218 0.3732,-0.09657 0.37321,-0.09218 0.37321,-0.09218 0.37321,-0.09657 0.37321,-0.09218 0.37321,-0.09657 0.37321,-0.09657 0.37321,-0.09657 0.37321,-0.09657 0.37321,-0.09657 0.3732,-0.09657 0.37321,-0.09657 0.37321,-0.09657 0.37321,-0.100958 0.37321,-0.09657 0.37321,-0.100958 0.37321,-0.100958 0.37321,-0.100958 0.37321,-0.100958 0.3732,-0.100958 0.37321,-0.100958 0.37321,-0.105347 0.37321,-0.100958 0.37321,-0.105347 0.37321,-0.105348 0.37321,-0.105347 0.37321,-0.105348 0.37321,-0.109736 0.37321,-0.105348 0.3732,-0.109737 0.37321,-0.109737 0.37321,-0.109737 0.37321,-0.114126 0.37321,-0.109737 0.37321,-0.114126 0.37321,-0.114127 0.37321,-0.118515 0.37321,-0.114127 0.3732,-0.118516 0.37321,-0.118516 0.37321,-0.118515 0.37321,-0.122906 0.37321,-0.122905 0.37321,-0.122905 0.37321,-0.127295 0.37321,-0.127295 0.37321,-0.127295 0.3732,-0.127295 0.37321,-0.131684 0.37321,-0.131684 0.37321,-0.136074 0.37321,-0.136074 0.37321,-0.136073 0.37321,-0.136074 0.37321,-0.140463 0.37321,-0.140464 0.37321,-0.144852 0.3732,-0.144853 0.37321,-0.144853 0.37321,-0.149242 0.37321,-0.149242 0.37321,-0.149242 0.37321,-0.153632 0.37321,-0.153631 0.37321,-0.158022 0.37321,-0.158021 0.3732,-0.158021 0.37321,-0.158021 0.37321,-0.162411 0.37321,-0.16241 0.37321,-0.1668 0.37321,-0.1668 0.37321,-0.1668 0.37321,-0.17119 0.37321,-0.17119 0.3732,-0.171189 0.37321,-0.175579 0.37321,-0.175579 0.37321,-0.175579 0.37321,-0.175579 0.37321,-0.179969 0.37321,-0.179968 0.37321,-0.179969 0.37321,-0.184358 0.37321,-0.179968 0.3732,-0.184358 0.37321,-0.184358 0.37321,-0.188748 0.37321,-0.184358 0.37321,-0.188747 0.37321,-0.188748 0.37321,-0.184358 0.37321,-0.188747 0.37321,-0.193137 0.3732,-0.188747 0.37321,-0.188748 0.37321,-0.188747 0.37321,-0.193137 0.37321,-0.188748 0.37321,-0.188747 0.37321,-0.188748 0.37321,-0.193137 0.37321,-0.188747 0.3732,-0.188747 0.37321,-0.188748 0.37321,-0.188747 0.37321,-0.188748 0.37321,-0.184358 0.37321,-0.188747 0.37321,-0.184358 0.37321,-0.184358 0.37321,-0.184358 0.37321,-0.184358 0.3732,-0.179969 0.37321,-0.179968 0.37321,-0.179969 0.37321,-0.179968 0.37321,-0.175579 0.37321,-0.175579 0.37321,-0.175579 0.37321,-0.17119 0.37321,-0.171189 0.3732,-0.166801 0.37321,-0.1668 0.37321,-0.1668 0.37321,-0.16241 0.37321,-0.162411 0.37321,-0.162411 0.37321,-0.158021 0.37321,-0.153631 0.37321,-0.153632 0.3732,-0.153632 0.37321,-0.149242 0.37321,-0.149242 0.37321,-0.144853 0.37321,-0.140463 0.37321,-0.140463 0.37321,-0.140463 0.37321,-0.136074 0.37321,-0.131684 0.37321,-0.131685 0.3732,-0.127294 0.37321,-0.127295 0.37321,-0.122906 0.37321,-0.122905 0.37321,-0.118516 0.37321,-0.118516 0.37321,-0.114126 0.37321,-0.109737 0.37321,-0.109737 0.3732,-0.109737 0.37321,-0.100958 0.37321,-0.105347 0.37321,-0.09657 0.37321,-0.09657 0.37321,-0.09657 0.36882,-0.09218 0.37321,-0.09218 0.37321,-0.08779 0.3732,-0.0834 0.37321,-0.0834 0.37321,-0.0834 0.37321,-0.07901 0.37321,-0.07462 0.37321,-0.07462 0.37321,-0.07462 0.37321,-0.06584 0.37321,-0.07023 0.3732,-0.06584 0.37321,-0.06584 0.37321,-0.06145 0.37321,-0.05706 0.37321,-0.06145 0.37321,-0.05267 0.37321,-0.05706 0.37321,-0.05267 0.37321,-0.04828 0.3732,-0.04828 0.37321,-0.04828 0.37321,-0.04828 0.37321,-0.0439 0.37321,-0.0395 0.37321,-0.04389 0.37321,-0.03951 0.37321,-0.03512 0.37321,-0.03512 0.37321,-0.03511 0.3732,-0.03512 0.37321,-0.03073 0.37321,-0.03073 0.37321,-0.03073 0.37321,-0.03073 0.37321,-0.02634 0.37321,-0.02634 0.37321,-0.02634 0.37321,-0.02195 0.3732,-0.02195 0.37321,-0.02195 0.37321,-0.02195 0.37321,-0.02195 0.37321,-0.01756 0.37321,-0.01756 0.37321,-0.01756 0,-0.316042 -0.37321,0 -0.37321,0 -0.37321,0 -0.37321,0 -0.37321,0 -0.37321,0 -0.3732,0 -0.37321,0 -0.37321,0 -0.37321,0 -0.37321,0 -0.37321,0 -0.37321,0 -0.37321,0 -0.37321,0 -0.3732,0 -0.37321,0 -0.37321,0 -0.37321,0 -0.37321,0 -0.37321,0 -0.37321,0 -0.37321,0 -0.37321,0 -0.37321,0 -0.3732,0 -0.37321,0 -0.37321,0 -0.37321,0 -0.37321,0 -0.37321,0 -0.37321,0 -0.37321,0 -0.37321,0 -0.3732,0 -0.37321,0 -0.37321,0 -0.37321,0 -0.37321,0 -0.37321,0 -0.37321,0 -0.37321,0 -0.37321,0 -0.3732,0 -0.37321,0 -0.37321,0 -0.36882,0 -0.37321,0 -0.37321,0 -0.37321,0 -0.37321,0 -0.37321,0 -0.3732,0 -0.37321,0 -0.37321,0 -0.37321,0 -0.37321,0 -0.37321,0 -0.37321,0 -0.37321,0 -0.37321,0 -0.3732,0 -0.37321,0 -0.37321,0 -0.37321,0 -0.37321,0 -0.37321,0 -0.37321,0 -0.37321,0 -0.37321,0 -0.37321,0 -0.3732,0 -0.37321,0 -0.37321,0 -0.37321,0 -0.37321,0 -0.37321,0 -0.37321,0 -0.37321,0 -0.37321,0 -0.3732,0 -0.37321,0 -0.37321,0 -0.37321,0 -0.37321,0 -0.37321,0 -0.37321,0 -0.37321,0 -0.37321,0 -0.3732,0 -0.37321,0 -0.37321,0 -0.37321,0 -0.37321,0 -0.37321,0 -0.37321,0 -0.37321,0 -0.37321,0 -0.37321,0 -0.3732,0 -0.37321,0 -0.37321,0 -0.37321,0 -0.37321,0 -0.37321,0 -0.37321,0 -0.37321,0 -0.37321,0 -0.3732,0 -0.37321,0 -0.37321,0 -0.37321,0 -0.37321,0 -0.37321,0 -0.37321,0 -0.37321,0 -0.37321,0 -0.3732,0 -0.37321,0 -0.37321,0 -0.37321,0 -0.37321,0 -0.37321,0 -0.37321,0 -0.37321,0 -0.37321,0 -0.37321,0 -0.3732,0 -0.37321,0 -0.37321,0 -0.37321,0 -0.37321,0 -0.37321,0 -0.37321,0 -0.37321,0 -0.37321,0 -0.3732,0 -0.37321,0 -0.37321,0 -0.37321,0 -0.37321,0 -0.37321,0 -0.37321,0 -0.37321,0 -0.37321,0 -0.3732,0 -0.37321,0 -0.37321,0 -0.37321,0 -0.37321,0 -0.37321,0 -0.37321,0 -0.37321,0 -0.37321,0 -0.37321,0 -0.3732,0 -0.37321,0 -0.37321,0 -0.37321,0 -0.37321,0 -0.37321,0 -0.37321,0 -0.37321,0 -0.37321,0 -0.3732,0 -0.37321,0 -0.37321,0 -0.37321,0 -0.37321,0 -0.37321,0 -0.37321,0 -0.37321,0 -0.37321,0 -0.3732,0 -0.37321,0 -0.37321,0 -0.37321,0 -0.37321,0 -0.37321,0 -0.37321,0 -0.37321,0 -0.37321,0 -0.37321,0 -0.3732,0 -0.37321,0 -0.37321,0 -0.37321,0 -0.37321,0 -0.37321,0 -0.37321,0 -0.37321,0 -0.37321,0 -0.3732,0 -0.37321,0 -0.37321,0 -0.37321,0 -0.37321,0 -0.37321,0 -0.37321,0 -0.37321,0 -0.37321,0 -0.37321,0 -0.3732,0 -0.37321,0 -0.37321,0 -0.37321,0 -0.37321,0 -0.37321,0 -0.37321,0 -0.37321,0 -0.37321,0 -0.3732,0 -0.37321,0 -0.37321,0 -0.37321,0 -0.37321,0 -0.37321,0 -0.37321,0 -0.37321,0 -0.37321,0 -0.3732,0 -0.37321,0 -0.37321,0 -0.37321,0 -0.37321,0 -0.37321,0 -0.37321,0 -0.37321,0 -0.37321,0 -0.37321,0 -0.3732,0 -0.37321,0 -0.37321,0 -0.37321,0 -0.37321,0 -0.37321,0 -0.37321,0 -0.37321,0 -0.37321,0 -0.3732,0 -0.37321,0 -0.37321,0 -0.37321,0 -0.37321,0 -0.37321,0 -0.37321,0 -0.37321,0 -0.37321,0 -0.3732,0 -0.37321,0 -0.37321,0 -0.37321,0 -0.37321,0 -0.37321,0 -0.37321,0 -0.37321,0 -0.37321,0 -0.37321,0 -0.3732,0 -0.37321,0 -0.37321,0 -0.37321,0 -0.37321,0 -0.37321,0 -0.37321,0 -0.37321,0 -0.37321,0 -0.3732,0 -0.37321,0 -0.37321,0 -0.37321,0 -0.37321,0 -0.37321,0 -0.37321,0 -0.37321,0 -0.37321,0 -0.3732,0 -0.37321,0 -0.37321,0 -0.37321,0 -0.37321,0 -0.37321,0 -0.37321,0 -0.37321,0 -0.37321,0 -0.37321,0 -0.3732,0 -0.37321,0 -0.37321,0 -0.37321,0 -0.37321,0 -0.37321,0 -0.37321,0 -0.37321,0 -0.37321,0 -0.3732,0 -0.37321,0 -0.37321,0 -0.37321,0 -0.37321,0 -0.37321,0 -0.37321,0 -0.37321,0 -0.37321,0 -0.3732,0 -0.37321,0 -0.37321,0 -0.37321,0 -0.37321,0 -0.37321,0 -0.37321,0 -0.37321,0 -0.37321,0 -0.37321,0 -0.3732,0 -0.37321,0 -0.37321,0 -0.37321,0 -0.37321,0 -0.37321,0 -0.36882,0 -0.37321,0 -0.3732,0 -0.37321,0 -0.37321,0 -0.37321,0 -0.37321,0 -0.37321,0 -0.37321,0 -0.37321,0 -0.37321,0 -0.37321,0 -0.3732,0 -0.37321,0 -0.37321,0 -0.37321,0 -0.37321,0 -0.37321,0 -0.37321,0 -0.37321,0 -0.37321,0 -0.3732,0 -0.37321,0 -0.37321,0 -0.37321,0 -0.37321,0 -0.37321,0 -0.37321,0 -0.37321,0 -0.37321,0 -0.3732,0 -0.37321,0 -0.37321,0 -0.37321,0 -0.37321,0 -0.37321,0 -0.37321,0 -0.37321,0 -0.37321,0 -0.37321,0 -0.3732,0 -0.37321,0 -0.37321,0 -0.37321,0 -0.37321,0 -0.37321,0 -0.37321,0 -0.37321,0 -0.37321,0 -0.3732,0 -0.37321,0 -0.37321,0 -0.37321,0 -0.37321,0 -0.37321,0 -0.37321,0 -0.37321,0 -0.37321,0 -0.37321,0 -0.3732,0 -0.37321,0 -0.37321,0 -0.37321,0 -0.37321,0 -0.37321,0 -0.37321,0 -0.37321,0 -0.37321,0 -0.3732,0 -0.37321,0 -0.37321,0 -0.37321,0 -0.37321,0 -0.37321,0 -0.37321,0 -0.37321,0 -0.37321,0 -0.3732,0 -0.37321,0 -0.37321,0 -0.37321,0 -0.37321,0 -0.37321,0 -0.37321,0 -0.37321,0 -0.37321,0 -0.37321,0 -0.3732,0 -0.37321,0 -0.37321,0 -0.37321,0 -0.37321,0 -0.37321,0 -0.37321,0 -0.37321,0 -0.37321,0 -0.3732,0 -0.37321,0 -0.37321,0 -0.37321,0 -0.37321,0 -0.37321,0 -0.37321,0 -0.37321,0 -0.37321,0 -0.3732,0 -0.37321,0 -0.37321,0 -0.37321,0 -0.37321,0 -0.37321,0 -0.37321,0 -0.37321,0 -0.37321,0 -0.37321,0 -0.3732,0 -0.37321,0 -0.37321,0 -0.37321,0 -0.37321,0 -0.37321,0 -0.37321,0 -0.37321,0 -0.37321,0 -0.3732,0 -0.37321,0 -0.37321,0 -0.37321,0 -0.37321,0 -0.37321,0 -0.37321,0 -0.37321,0 -0.37321,0 -0.3732,0 -0.37321,0 -0.37321,0 -0.37321,0 -0.37321,0 -0.37321,0 -0.37321,0 -0.37321,0 -0.37321,0 -0.37321,0 -0.3732,0 -0.37321,0 -0.37321,0 -0.37321,0 -0.37321,0 -0.37321,0 -0.37321,0 -0.37321,0 -0.37321,0 -0.3732,0 -0.37321,0 -0.37321,0 -0.37321,0 -0.37321,0 -0.37321,0 -0.37321,0 -0.37321,0 -0.37321,0 -0.3732,0 -0.37321,0 -0.37321,0 -0.37321,0 -0.37321,0 -0.37321,0 -0.37321,0 -0.37321,0 -0.37321,0 -0.37321,0 -0.3732,0 -0.37321,0 -0.37321,0 -0.37321,0 -0.37321,0 -0.37321,0 -0.37321,0 -0.37321,0 -0.37321,0 -0.3732,0 -0.37321,0 -0.37321,0 -0.37321,0 -0.37321,0 -0.37321,0 -0.37321,0 -0.37321,0 -0.37321,0 -0.3732,0 -0.37321,0 0,100.773583 z" /><path
         inkscape:connector-curvature="0"
         id="path112719"
         style="fill:#000000;fill-opacity:0.30199998;fill-rule:nonzero;stroke:#000000;stroke-width:0.40000001;stroke-linecap:round;stroke-linejoin:round;stroke-miterlimit:10;stroke-dasharray:none;stroke-opacity:1"
         d="m 289.13753,18.527154 0.37321,0 0.3732,0 0.37321,0 0.37321,0 0.37321,0 0.37321,0 0.37321,0 0.37321,0 0.37321,0 0.37321,0 0.3732,0 0.37321,0 0.37321,0 0.37321,0 0.37321,0 0.37321,0 0.37321,0 0.37321,0 0.37321,0 0.3732,0 0.37321,0 0.37321,0 0.37321,0 0.37321,0 0.37321,0 0.37321,0 0.37321,0 0.37321,0 0.37321,0 0.3732,0 0.37321,0 0.37321,0.0044 0.37321,0 0.37321,0 0.37321,0 0.37321,0 0.37321,0 0.37321,0 0.3732,0 0.37321,0 0.37321,0.0044 0.37321,0 0.37321,0 0.37321,0 0.37321,0 0.37321,0.0044 0.37321,0 0.3732,0 0.37321,0.0044 0.37321,0 0.37321,0 0.37321,0.0044 0.37321,0 0.37321,0 0.37321,0.0044 0.37321,0 0.37321,0.0044 0.3732,0 0.37321,0.0044 0.37321,0.0044 0.37321,0 0.37321,0.0044 0.37321,0.0044 0.37321,0.0044 0.37321,0.0044 0.37321,0.0044 0.3732,0.0044 0.37321,0.0044 0.37321,0.0044 0.37321,0.0044 0.37321,0.0088 0.37321,0.0044 0.37321,0.0088 0.37321,0.0044 0.37321,0.0088 0.3732,0.0088 0.37321,0.0088 0.37321,0.0088 0.37321,0.0088 0.37321,0.0088 0.37321,0.01317 0.37321,0.0088 0.37321,0.01317 0.37321,0.01317 0.37321,0.01317 0.3732,0.01317 0.37321,0.01756 0.37321,0.01317 0.37321,0.01756 0.37321,0.02195 0.37321,0.01756 0.37321,0.01756 0.37321,0.02195 0.37321,0.02195 0.3732,0.02634 0.37321,0.02634 0.37321,0.02195 0.37321,0.03073 0.37321,0.03073 0.37321,0.03073 0.37321,0.03073 0.37321,0.03512 0.37321,0.03512 0.3732,0.03512 0.37321,0.03951 0.37321,0.04389 0.37321,0.04389 0.37321,0.04389 0.37321,0.04828 0.37321,0.05267 0.37321,0.05267 0.37321,0.05267 0.37321,0.05706 0.3732,0.06145 0.37321,0.06584 0.37321,0.06584 0.37321,0.07023 0.37321,0.07023 0.37321,0.07462 0.37321,0.07901 0.37321,0.0834 0.37321,0.0834 0.3732,0.09218 0.37321,0.09218 0.37321,0.09657 0.37321,0.105348 0.37321,0.100958 0.37321,0.114126 0.37321,0.109737 0.37321,0.122905 0.37321,0.118516 0.3732,0.131684 0.37321,0.131685 0.37321,0.140463 0.37321,0.140463 0.37321,0.149242 0.37321,0.153632 0.37321,0.158021 0.37321,0.1668 0.37321,0.17119 0.37321,0.179968 0.3732,0.179969 0.37321,0.188747 0.37321,0.197526 0.37321,0.201916 0.37321,0.210695 0.37321,0.210695 0.37321,0.223863 0.37321,0.228253 0.37321,0.237032 0.3732,0.24581 0.37321,0.2502 0.37321,0.25898 0.37321,0.263368 0.37321,0.276537 0.37321,0.276537 0.37321,0.289705 0.37321,0.298485 0.37321,0.302874 0.37321,0.316042 0.3732,0.320432 0.37321,0.32921 0.37321,0.3336 0.37321,0.346769 0.37321,0.351158 0.37321,0.368716 0.37321,0.368716 0.37321,0.377495 0.37321,0.390663 0.3732,0.395053 0.37321,0.403832 0.37321,0.412611 0.37321,0.425779 0.37321,0.425779 0.37321,0.438948 0.37321,0.447726 0.37321,0.456506 0.37321,0.465284 0.3732,0.469674 0.37321,0.482842 0.37321,0.487232 0.37321,0.496011 0.37321,0.50479 0.37321,0.513568 0.37321,0.517958 0.37321,0.531127 0.37321,0.535516 0.37321,0.539905 0.3732,0.548685 0.37321,0.557463 0.36882,0.566243 0.37321,0.566242 0.37321,0.579411 0.37321,0.579411 0.37321,0.592579 0.37321,0.592579 0.3732,0.601358 0.37321,0.605748 0.37321,0.610137 0.37321,0.614527 0.37321,0.618916 0.37321,0.627695 0.37321,0.627695 0.37321,0.632084 0.37321,0.632085 0.37321,0.640863 0.3732,0.640864 0.37321,0.645253 0.37321,0.645253 0.37321,0.645253 0.37321,0.649642 0.37321,0.654032 0.37321,0.649642 0.37321,0.649643 0.37321,0.654032 0.3732,0.649642 0.37321,0.654032 0.37321,0.649643 0.37321,0.645252 0.37321,0.649643 0.37321,0.645253 0.37321,0.640863 0.37321,0.636474 0.37321,0.640864 0.3732,0.627695 0.37321,0.632084 0.37321,0.623306 0.37321,0.618916 0.37321,0.614527 0.37321,0.610137 0.37321,0.601358 0.37321,0.596969 0.37321,0.592579 0.37321,0.5838 0.3732,0.579411 0.37321,0.566242 0.37321,0.561853 0.37321,0.553074 0.37321,0.544295 0.37321,0.535516 0.37321,0.526737 0.37321,0.522348 0.37321,0.50479 0.3732,0.5004 0.37321,0.482842 0.37321,0.478453 0.37321,0.469674 0.37321,0.452116 0.37321,0.447727 0.37321,0.434558 0.37321,0.425779 0.37321,0.403832 0.3732,0.403831 0.37321,0.386274 0.37321,0.373106 0.37321,0.364326 0.37321,0.351158 0.37321,0.33799 0.37321,0.324821 0.37321,0.316042 0.37321,0.298485 0.37321,0.289705 0.3732,0.272148 0.37321,0.267758 0.37321,0.2502 0.37321,0.237031 0.37321,0.228253 0.37321,0.210695 0.37321,0.206305 0.37321,0.184358 0.37321,0.179969 0.3732,0.16241 0.37321,0.153632 0.37321,0.144853 0.37321,0.131684 0.37321,0.122905 0.37321,0.105348 0.37321,0.100958 0.37321,0.0834 0.37321,0.07901 0.3732,0.06584 0.37321,0.06145 0.37321,0.04828 0.37321,0.03951 0.37321,0.03512 0.37321,0.01756 0.37321,0.01756 0.37321,0.0088 0.37321,0 0.37321,-0.0044 0.3732,-0.01317 0.37321,-0.01756 0.37321,-0.02634 0.37321,-0.02634 0.37321,-0.03073 0.37321,-0.03951 0.37321,-0.03951 0.37321,-0.04389 0.37321,-0.0439 0.3732,-0.04828 0.37321,-0.04828 0.37321,-0.05267 0.37321,-0.05267 0.37321,-0.04828 0.37321,-0.05267 0.37321,-0.04828 0.37321,-0.04828 0.37321,-0.04828 0.3732,-0.04389 0.37321,-0.0439 0.37321,-0.03512 0.37321,-0.03511 0.37321,-0.03073 0.37321,-0.02195 0.37321,-0.02195 0.37321,-0.01317 0.37321,-0.0088 0.37321,0.0044 0.3732,0.0044 0.37321,0.01317 0.37321,0.02195 0.37321,0.03073 0.37321,0.03951 0.37321,0.04828 0.37321,0.06145 0.37321,0.06584 0.37321,0.07901 0.3732,0.08779 0.37321,0.100958 0.37321,0.109737 0.37321,0.122905 0.37321,0.131684 0.37321,0.149242 0.37321,0.153632 0.37321,0.171189 0.37321,0.179969 0.37321,0.193137 0.3732,0.210695 0.37321,0.215084 0.37321,0.232642 0.37321,0.241421 0.37321,0.25898 0.37321,0.267758 0.37321,0.280926 0.37321,0.298484 0.37321,0.302874 0.3732,0.320432 0.37321,0.329211 0.37321,0.346768 0.37321,0.351158 0.37321,0.364327 0.37321,0.377495 0.37321,0.386274 0.37321,0.403831 0.37321,0.403832 0.3732,0.42139 0.37321,0.430168 0.37321,0.438948 0.37321,0.447727 0.37321,0.452116 0.37321,0.465284 0.37321,0.469674 0.37321,0.478453 0.37321,0.482842 0.37321,0.496011 0.3732,0.491621 0.37321,0.50479 0.37321,0.50479 0.37321,0.509179 0.37321,0.513568 0.37321,0.513569 0.37321,0.522348 0.37321,0.517958 0.37321,0.517958 0.3732,0.522351 0.37321,0.52235 0.37321,0.51796 0.37321,0.51795 0.37321,0.51357 0.37321,0.51796 0.37321,0.50479 0.37321,0.50918 0.37321,0.5004 0.3732,0.49601 0.37321,0.48723 0.37321,0.48285 0.37321,0.47845 0.37321,0.46528 0.37321,0.4609 0.37321,0.44772 0.37321,0.44334 0.37321,0.43017 0.37321,0.42139 0.3732,0.40822 0.37321,0.39944 0.37321,0.38628 0.37321,0.36871 0.37321,0.36433 0.37321,0.34238 0.37321,0.33799 0.37321,0.31165 0.37321,0.30726 0.3732,0.28971 0.37321,0.26776 0.37321,0.26337 0.37321,0.23703 0.37321,0.22825 0.37321,0.20192 0.37321,0.19752 0.37321,0.1668 0.37321,0.15802 0.3732,0.14047 0.37321,0.11851 0.37321,0.10974 0.37321,0.079 0.37321,0.0746 0.37321,0.0439 0.37321,0.0351 0.37321,0.009 0.37321,0 0.37321,-0.022 0.3732,-0.0439 0.37321,-0.0571 0.37321,-0.0834 0.37321,-0.0878 0.37321,-0.11852 0.37321,-0.12729 0.37321,-0.14925 0.37321,-0.1668 0.37321,-0.17996 0.3732,-0.20192 0.37321,-0.2107 0.37321,-0.23703 0.37321,-0.24581 0.37321,-0.27215 0.37321,-0.27653 0.37321,-0.29849 0.37321,-0.31165 0.37321,-0.32482 0.3732,-0.34677 0.37321,-0.35116 0.37321,-0.37749 0.37321,-0.3775 0.37321,-0.40383 0.37321,-0.40822 0.37321,-0.42578 0.37321,-0.43895 0.37321,-0.44333 0.37321,-0.46529 0.3732,-0.46967 0.37321,-0.48723 0.37321,-0.49163 0.37321,-0.50479 0.37321,-0.51356 0.37321,-0.52674 0.37321,-0.53552 0.37321,-0.54429 0.37321,-0.55308 0.3732,-0.55746 0.37321,-0.57063 0.37321,-0.57941 0.37321,-0.5838 0.37321,-0.592586 0.37321,-0.601358 0.36882,-0.605748 0.37321,-0.610137 0.37321,-0.618916 0.3732,-0.623305 0.37321,-0.632085 0.37321,-0.636474 0.37321,-0.640863 0.37321,-0.645253 0.37321,-0.649643 0.37321,-0.654032 0.37321,-0.658421 0.37321,-0.662811 0.3732,-0.6672 0.37321,-0.67159 0.37321,-0.67159 0.37321,-0.675979 0.37321,-0.680369 0.37321,-0.680368 0.37321,-0.684759 0.37321,-0.684758 0.37321,-0.689148 0.3732,-0.689147 0.37321,-0.693537 0.37321,-0.693538 0.37321,-0.697926 0.37321,-0.697927 0.37321,-0.697927 0.37321,-0.697926 0.37321,-0.702316 0.37321,-0.697927 0.37321,-0.702316 0.3732,-0.702316 0.37321,-0.702316 0.37321,-0.706706 0.37321,-0.702316 0.37321,-0.702316 0.37321,-0.702316 0.37321,-0.702317 0.37321,-0.706705 0.37321,-0.702316 0.3732,-0.697927 0.37321,-0.702316 0.37321,-0.702316 0.37321,-0.697927 0.37321,-0.697926 0.37321,-0.697927 0.37321,-0.697927 0,-48.573939 -0.37321,0 -0.37321,0 -0.37321,0 -0.37321,0 -0.37321,0 -0.37321,0 -0.3732,0 -0.37321,0 -0.37321,0 -0.37321,0 -0.37321,0 -0.37321,0 -0.37321,0 -0.37321,0 -0.37321,0 -0.3732,0 -0.37321,0 -0.37321,0 -0.37321,0 -0.37321,0 -0.37321,0 -0.37321,0 -0.37321,0 -0.37321,0 -0.37321,0 -0.3732,0 -0.37321,0 -0.37321,0 -0.37321,0 -0.37321,0 -0.37321,0 -0.37321,0 -0.37321,0 -0.37321,0 -0.3732,0 -0.37321,0 -0.37321,0 -0.37321,0 -0.37321,0 -0.37321,0 -0.37321,0 -0.37321,0 -0.37321,0 -0.3732,0 -0.37321,0 -0.37321,0 -0.36882,0 -0.37321,0 -0.37321,0 -0.37321,0 -0.37321,0 -0.37321,0 -0.3732,0 -0.37321,0 -0.37321,0 -0.37321,0 -0.37321,0 -0.37321,0 -0.37321,0 -0.37321,0 -0.37321,0 -0.3732,0 -0.37321,0 -0.37321,0 -0.37321,0 -0.37321,0 -0.37321,0 -0.37321,0 -0.37321,0 -0.37321,0 -0.37321,0 -0.3732,0 -0.37321,0 -0.37321,0 -0.37321,0 -0.37321,0 -0.37321,0 -0.37321,0 -0.37321,0 -0.37321,0 -0.3732,0 -0.37321,0 -0.37321,0 -0.37321,0 -0.37321,0 -0.37321,0 -0.37321,0 -0.37321,0 -0.37321,0 -0.3732,0 -0.37321,0 -0.37321,0 -0.37321,0 -0.37321,0 -0.37321,0 -0.37321,0 -0.37321,0 -0.37321,0 -0.37321,0 -0.3732,0 -0.37321,0 -0.37321,0 -0.37321,0 -0.37321,0 -0.37321,0 -0.37321,0 -0.37321,0 -0.37321,0 -0.3732,0 -0.37321,0 -0.37321,0 -0.37321,0 -0.37321,0 -0.37321,0 -0.37321,0 -0.37321,0 -0.37321,0 -0.3732,0 -0.37321,0 -0.37321,0 -0.37321,0 -0.37321,0 -0.37321,0 -0.37321,0 -0.37321,0 -0.37321,0 -0.37321,0 -0.3732,0 -0.37321,0 -0.37321,0 -0.37321,0 -0.37321,0 -0.37321,0 -0.37321,0 -0.37321,0 -0.37321,0 -0.3732,0 -0.37321,0 -0.37321,0 -0.37321,0 -0.37321,0 -0.37321,0 -0.37321,0 -0.37321,0 -0.37321,0 -0.3732,0 -0.37321,0 -0.37321,0 -0.37321,0 -0.37321,0 -0.37321,0 -0.37321,0 -0.37321,0 -0.37321,0 -0.37321,0 -0.3732,0 -0.37321,0 -0.37321,0 -0.37321,0 -0.37321,0 -0.37321,0 -0.37321,0 -0.37321,0 -0.37321,0 -0.3732,0 -0.37321,0 -0.37321,0 -0.37321,0 -0.37321,0 -0.37321,0 -0.37321,0 -0.37321,0 -0.37321,0 -0.3732,0 -0.37321,0 -0.37321,0 -0.37321,0 -0.37321,0 -0.37321,0 -0.37321,0 -0.37321,0 -0.37321,0 -0.37321,0 -0.3732,0 -0.37321,0 -0.37321,0 -0.37321,0 -0.37321,0 -0.37321,0 -0.37321,0 -0.37321,0 -0.37321,0 -0.3732,0 -0.37321,0 -0.37321,0 -0.37321,0 -0.37321,0 -0.37321,0 -0.37321,0 -0.37321,0 -0.37321,0 -0.37321,0 -0.3732,0 -0.37321,0 -0.37321,0 -0.37321,0 -0.37321,0 -0.37321,0 -0.37321,0 -0.37321,0 -0.37321,0 -0.3732,0 -0.37321,0 -0.37321,0 -0.37321,0 -0.37321,0 -0.37321,0 -0.37321,0 -0.37321,0 -0.37321,0 -0.3732,0 -0.37321,0 -0.37321,0 -0.37321,0 -0.37321,0 -0.37321,0 -0.37321,0 -0.37321,0 -0.37321,0 -0.37321,0 -0.3732,0 -0.37321,0 -0.37321,0 -0.37321,0 -0.37321,0 -0.37321,0 -0.37321,0 -0.37321,0 -0.37321,0 -0.3732,0 -0.37321,0 -0.37321,0 -0.37321,0 -0.37321,0 -0.37321,0 -0.37321,0 -0.37321,0 -0.37321,0 -0.3732,0 -0.37321,0 -0.37321,0 -0.37321,0 -0.37321,0 -0.37321,0 -0.37321,0 -0.37321,0 -0.37321,0 -0.37321,0 -0.3732,0 -0.37321,0 -0.37321,0 -0.37321,0 -0.37321,0 -0.37321,0 -0.37321,0 -0.37321,0 -0.37321,0 -0.3732,0 -0.37321,0 -0.37321,0 -0.37321,0 -0.37321,0 -0.37321,0 -0.37321,0 -0.37321,0 -0.37321,0 -0.3732,0 -0.37321,0 -0.37321,0 -0.37321,0 -0.37321,0 -0.37321,0 -0.37321,0 -0.37321,0 -0.37321,0 -0.37321,0 -0.3732,0 -0.37321,0 -0.37321,0 -0.37321,0 -0.37321,0 -0.37321,0 -0.37321,0 -0.37321,0 -0.37321,0 -0.3732,0 -0.37321,0 -0.37321,0 -0.37321,0 -0.37321,0 -0.37321,0 -0.37321,0 -0.37321,0 -0.37321,0 -0.3732,0 -0.37321,0 -0.37321,0 -0.37321,0 -0.37321,0 -0.37321,0 -0.37321,0 -0.37321,0 -0.37321,0 -0.37321,0 -0.3732,0 -0.37321,0 -0.37321,0 -0.37321,0 -0.37321,0 -0.37321,0 -0.36882,0 -0.37321,0 -0.3732,0 -0.37321,0 -0.37321,0 -0.37321,0 -0.37321,0 -0.37321,0 -0.37321,0 -0.37321,0 -0.37321,0 -0.37321,0 -0.3732,0 -0.37321,0 -0.37321,0 -0.37321,0 -0.37321,0 -0.37321,0 -0.37321,0 -0.37321,0 -0.37321,0 -0.3732,0 -0.37321,0 -0.37321,0 -0.37321,0 -0.37321,0 -0.37321,0 -0.37321,0 -0.37321,0 -0.37321,0 -0.3732,0 -0.37321,0 -0.37321,0 -0.37321,0 -0.37321,0 -0.37321,0 -0.37321,0 -0.37321,0 -0.37321,0 -0.37321,0 -0.3732,0 -0.37321,0 -0.37321,0 -0.37321,0 -0.37321,0 -0.37321,0 -0.37321,0 -0.37321,0 -0.37321,0 -0.3732,0 -0.37321,0 -0.37321,0 -0.37321,0 -0.37321,0 -0.37321,0 -0.37321,0 -0.37321,0 -0.37321,0 -0.37321,0 -0.3732,0 -0.37321,0 -0.37321,0 -0.37321,0 -0.37321,0 -0.37321,0 -0.37321,0 -0.37321,0 -0.37321,0 -0.3732,0 -0.37321,0 -0.37321,0 -0.37321,0 -0.37321,0 -0.37321,0 -0.37321,0 -0.37321,0 -0.37321,0 -0.3732,0 -0.37321,0 -0.37321,0 -0.37321,0 -0.37321,0 -0.37321,0 -0.37321,0 -0.37321,0 -0.37321,0 -0.37321,0 -0.3732,0 -0.37321,0 -0.37321,0 -0.37321,0 -0.37321,0 -0.37321,0 -0.37321,0 -0.37321,0 -0.37321,0 -0.3732,0 -0.37321,0 -0.37321,0 -0.37321,0 -0.37321,0 -0.37321,0 -0.37321,0 -0.37321,0 -0.37321,0 -0.3732,0 -0.37321,0 -0.37321,0 -0.37321,0 -0.37321,0 -0.37321,0 -0.37321,0 -0.37321,0 -0.37321,0 -0.37321,0 -0.3732,0 -0.37321,0 -0.37321,0 -0.37321,0 -0.37321,0 -0.37321,0 -0.37321,0 -0.37321,0 -0.37321,0 -0.3732,0 -0.37321,0 -0.37321,0 -0.37321,0 -0.37321,0 -0.37321,0 -0.37321,0 -0.37321,0 -0.37321,0 -0.3732,0 -0.37321,0 -0.37321,0 -0.37321,0 -0.37321,0 -0.37321,0 -0.37321,0 -0.37321,0 -0.37321,0 -0.37321,0 -0.3732,0 -0.37321,0 -0.37321,0 -0.37321,0 -0.37321,0 -0.37321,0 -0.37321,0 -0.37321,0 -0.37321,0 -0.3732,0 -0.37321,0 -0.37321,0 -0.37321,0 -0.37321,0 -0.37321,0 -0.37321,0 -0.37321,0 -0.37321,0 -0.3732,0 -0.37321,0 -0.37321,0 -0.37321,0 -0.37321,0 -0.37321,0 -0.37321,0 -0.37321,0 -0.37321,0 -0.37321,0 -0.3732,0 -0.37321,0 -0.37321,0 -0.37321,0 -0.37321,0 -0.37321,0 -0.37321,0 -0.37321,0 -0.37321,0 -0.3732,0 -0.37321,0 -0.37321,0 -0.37321,0 -0.37321,0 -0.37321,0 -0.37321,0 -0.37321,0 -0.37321,0 -0.3732,0 -0.37321,0 0,0.0044 z" /><path
         inkscape:connector-curvature="0"
         id="path112721"
         style="fill:none;stroke:#000000;stroke-width:0.40000001;stroke-linecap:square;stroke-linejoin:round;stroke-miterlimit:10;stroke-dasharray:none;stroke-opacity:1"
         d="m 445.0386,13.128099 -156.0011,0" /><path
         inkscape:connector-curvature="0"
         id="path112723"
         style="fill:none;stroke:#000000;stroke-width:0.40000001;stroke-linecap:square;stroke-linejoin:round;stroke-miterlimit:10;stroke-dasharray:none;stroke-opacity:1"
         d="m 279.60533,18.484957 0,106.536683" /><text
         y="-16.479555"
         x="273.53238"
         transform="scale(1.0001387,-0.99986133)"
         style="font-variant:normal;font-weight:normal;font-size:6px;font-family:Helvetica;-inkscape-font-specification:Helvetica;writing-mode:lr-tb;fill:#000000;fill-opacity:1;fill-rule:nonzero;stroke:none;stroke-width:0.40000001;stroke-miterlimit:10;stroke-dasharray:none"
         id="text112737"><tspan
           y="-16.479555"
           x="273.53238"
           sodipodi:role="line"
           id="tspan112739">0</tspan></text>
<text
         y="-43.087856"
         x="268.4816"
         transform="scale(1.0001387,-0.99986134)"
         style="font-variant:normal;font-weight:normal;font-size:6px;font-family:Helvetica;-inkscape-font-specification:Helvetica;writing-mode:lr-tb;fill:#000000;fill-opacity:1;fill-rule:nonzero;stroke:none;stroke-width:0.40000001;stroke-miterlimit:10;stroke-dasharray:none"
         id="text112741"><tspan
           y="-43.087856"
           x="268.4816"
           sodipodi:role="line"
           id="tspan112743">0.5</tspan></text>
<text
         y="-69.696159"
         x="268.52847"
         transform="scale(1.0001387,-0.99986133)"
         style="font-variant:normal;font-weight:normal;font-size:6px;font-family:Helvetica;-inkscape-font-specification:Helvetica;writing-mode:lr-tb;fill:#000000;fill-opacity:1;fill-rule:nonzero;stroke:none;stroke-width:0.40000001;stroke-miterlimit:10;stroke-dasharray:none"
         id="text112745"><tspan
           y="-69.696159"
           x="268.52847"
           sodipodi:role="line"
           id="tspan112747">1.0</tspan></text>
<text
         y="-96.304459"
         x="268.4816"
         transform="scale(1.0001387,-0.99986134)"
         style="font-variant:normal;font-weight:normal;font-size:6px;font-family:Helvetica;-inkscape-font-specification:Helvetica;writing-mode:lr-tb;fill:#000000;fill-opacity:1;fill-rule:nonzero;stroke:none;stroke-width:0.40000001;stroke-miterlimit:10;stroke-dasharray:none"
         id="text112749"><tspan
           y="-96.304459"
           x="268.4816"
           sodipodi:role="line"
           id="tspan112751">1.5</tspan></text>
<text
         y="-122.91276"
         x="268.52847"
         transform="scale(1.0001387,-0.99986133)"
         style="font-variant:normal;font-weight:normal;font-size:6px;font-family:Helvetica;-inkscape-font-specification:Helvetica;writing-mode:lr-tb;fill:#000000;fill-opacity:1;fill-rule:nonzero;stroke:none;stroke-width:0.40000001;stroke-miterlimit:10;stroke-dasharray:none"
         id="text112753"><tspan
           y="-122.91276"
           x="268.52847"
           sodipodi:role="line"
           id="tspan112755">2.0</tspan></text>
<path
         d="m 277.85344,18.522765 1.75189,0"
         style="fill:none;stroke:#000000;stroke-width:0.40000001;stroke-linecap:butt;stroke-linejoin:round;stroke-miterlimit:10;stroke-dasharray:none;stroke-opacity:1"
         id="path112763"
         inkscape:connector-curvature="0" /><path
         d="m 277.85344,45.131767 1.75189,0"
         style="fill:none;stroke:#000000;stroke-width:0.40000001;stroke-linecap:butt;stroke-linejoin:round;stroke-miterlimit:10;stroke-dasharray:none;stroke-opacity:1"
         id="path112765"
         inkscape:connector-curvature="0" /><path
         d="m 277.85344,71.73638 1.75189,0"
         style="fill:none;stroke:#000000;stroke-width:0.40000001;stroke-linecap:butt;stroke-linejoin:round;stroke-miterlimit:10;stroke-dasharray:none;stroke-opacity:1"
         id="path112767"
         inkscape:connector-curvature="0" /><path
         d="m 277.85344,98.340993 1.75189,0"
         style="fill:none;stroke:#000000;stroke-width:0.40000001;stroke-linecap:butt;stroke-linejoin:round;stroke-miterlimit:10;stroke-dasharray:none;stroke-opacity:1"
         id="path112769"
         inkscape:connector-curvature="0" /><path
         d="m 277.85344,124.94561 1.75189,0"
         style="fill:none;stroke:#000000;stroke-width:0.40000001;stroke-linecap:butt;stroke-linejoin:round;stroke-miterlimit:10;stroke-dasharray:none;stroke-opacity:1"
         id="path112771"
         inkscape:connector-curvature="0" /><path
         d="m 289.13753,11.376698 0,1.751401"
         style="fill:none;stroke:#000000;stroke-width:0.40000001;stroke-linecap:butt;stroke-linejoin:round;stroke-miterlimit:10;stroke-dasharray:none;stroke-opacity:1"
         id="path112791"
         inkscape:connector-curvature="0" /><path
         d="m 341.07504,11.376698 0,1.751401"
         style="fill:none;stroke:#000000;stroke-width:0.40000001;stroke-linecap:butt;stroke-linejoin:round;stroke-miterlimit:10;stroke-dasharray:none;stroke-opacity:1"
         id="path112793"
         inkscape:connector-curvature="0" /><path
         d="m 393.01694,11.376698 0,1.751401"
         style="fill:none;stroke:#000000;stroke-width:0.40000001;stroke-linecap:butt;stroke-linejoin:round;stroke-miterlimit:10;stroke-dasharray:none;stroke-opacity:1"
         id="path112795"
         inkscape:connector-curvature="0" /><path
         d="m 444.95445,11.376698 0,1.751401"
         style="fill:none;stroke:#000000;stroke-width:0.40000001;stroke-linecap:butt;stroke-linejoin:round;stroke-miterlimit:10;stroke-dasharray:none;stroke-opacity:1"
         id="path112797"
         inkscape:connector-curvature="0" /><text
         y="-5.8818913"
         x="287.39545"
         transform="scale(1.0001387,-0.99986132)"
         style="font-variant:normal;font-weight:normal;font-size:6px;font-family:Helvetica;-inkscape-font-specification:Helvetica;writing-mode:lr-tb;fill:#000000;fill-opacity:1;fill-rule:nonzero;stroke:none;stroke-width:0.40000001;stroke-miterlimit:10;stroke-dasharray:none"
         id="text112803"><tspan
           sodipodi:role="line"
           id="tspan112805"
           x="287.39545"
           y="-5.8818913">0</tspan></text>
<text
         y="-5.8818913"
         x="337.06351"
         transform="scale(1.0001387,-0.99986134)"
         style="font-variant:normal;font-weight:normal;font-size:6px;font-family:Helvetica;-inkscape-font-specification:Helvetica;writing-mode:lr-tb;fill:#000000;fill-opacity:1;fill-rule:nonzero;stroke:none;stroke-width:0.40000001;stroke-miterlimit:10;stroke-dasharray:none"
         id="text112807"><tspan
           sodipodi:role="line"
           id="tspan112809"
           x="337.06351"
           y="-5.8818913">0.3</tspan></text>
<text
         y="-5.8818913"
         x="388.9938"
         transform="scale(1.0001387,-0.99986134)"
         style="font-variant:normal;font-weight:normal;font-size:6px;font-family:Helvetica;-inkscape-font-specification:Helvetica;writing-mode:lr-tb;fill:#000000;fill-opacity:1;fill-rule:nonzero;stroke:none;stroke-width:0.40000001;stroke-miterlimit:10;stroke-dasharray:none"
         id="text112811"><tspan
           sodipodi:role="line"
           id="tspan112813"
           x="388.9938"
           y="-5.8818913">0.6</tspan></text>
<text
         y="-5.8818913"
         x="440.9285"
         transform="scale(1.0001387,-0.99986134)"
         style="font-variant:normal;font-weight:normal;font-size:6px;font-family:Helvetica;-inkscape-font-specification:Helvetica;writing-mode:lr-tb;fill:#000000;fill-opacity:1;fill-rule:nonzero;stroke:none;stroke-width:0.40000001;stroke-miterlimit:10;stroke-dasharray:none"
         id="text112815"><tspan
           sodipodi:role="line"
           id="tspan112817"
           x="440.9285"
           y="-5.8818913">0.9</tspan></text>
</g><g
       id="g6478" /><g
       id="g6480" /><g
       id="g6482" /><g
       id="g6484" /><g
       id="g6486" /><g
       id="g6488" /><g
       id="g6490" /><g
       id="g6492" /><g
       id="g6494" /><g
       id="g6496" /><g
       id="g6502" /><g
       id="g6504" /><g
       id="g6506" /><g
       id="g6526" /><g
       id="g6528" /><g
       id="g6530" /><g
       id="g6532" /><g
       id="g6534" /><g
       id="g6554" /><g
       id="g6556" /><g
       id="g6568" /><g
       id="g6570" /><g
       id="g6572" /><g
       id="g6574" /><g
       id="g6576" /><g
       id="g6578" /><g
       id="g6580" /><g
       id="g6582" /><g
       id="g6596" /><g
       id="g6620" /><g
       id="g6622" /><g
       id="g6624" /><g
       id="g6626" /><g
       id="g6628" /><g
       id="g6636" /><g
       id="g6638" /><g
       id="g6646" /><g
       id="g6648" /><g
       id="g6650" /><g
       id="g6652" /><g
       id="g6654" /><g
       id="g6656" /><g
       id="g6658" /><g
       id="g6660" /><g
       id="g6668" /><g
       id="g6670" /><g
       id="g6672" /><g
       id="g6678" /><g
       id="g6680" /><g
       id="g6682" /><g
       id="g6688" /><g
       id="g6696" /><g
       id="g6704" /><g
       id="g6706" /><g
       id="g6708" /><g
       id="g6710" /><g
       id="g6712" /><g
       id="g6714" /><g
       id="g6716" /><g
       id="g6718" /><g
       id="g6720" /><g
       id="g6722" /><g
       id="g6724" /><g
       id="g6726" /><g
       id="g6630"
       transform="matrix(0.43923,0,0,0.43923,3.3765485,-1.7849166)"><text
         transform="matrix(1,0,0,-1,171.03,11.16)"
         style="font-variant:normal;font-weight:normal;font-size:16px;font-family:Helvetica;-inkscape-font-specification:Helvetica;writing-mode:lr-tb;fill:#000000;fill-opacity:1;fill-rule:nonzero;stroke:none"
         id="text6632"><tspan
           sodipodi:role="line"
           id="tspan6634"
           x="0"
           y="0"
           style="font-size:18.21369171px">Average MaxOD on defined media</tspan></text>
</g><g
       id="g6640"
       transform="matrix(0.43923,0,0,0.43923,4.9765485,-0.18491656)"><text
         transform="matrix(0,1,1,0,22.65,155.44)"
         style="font-variant:normal;font-weight:normal;font-size:16px;font-family:Helvetica;-inkscape-font-specification:Helvetica;writing-mode:lr-tb;fill:#000000;fill-opacity:1;fill-rule:nonzero;stroke:none"
         id="text6642"><tspan
           sodipodi:role="line"
           id="tspan6644"
           x="0"
           y="0"
           style="font-size:18.21369171px">density</tspan></text>
</g><g
       id="g7735"
       transform="translate(0.1857865,-80.468751)"><g
         id="g6662"
         transform="matrix(0.43923,0,0,0.43923,1.5384913,5.5207123)"><text
           id="text6664"
           style="font-variant:normal;font-weight:normal;font-size:16px;font-family:Helvetica;-inkscape-font-specification:Helvetica;writing-mode:lr-tb;fill:#000000;fill-opacity:1;fill-rule:nonzero;stroke:none"
           transform="matrix(1,0,0,-1,92.71,267.68)"><tspan
             style="font-size:18.21369171px"
             y="0"
             x="0"
             id="tspan6666"
             sodipodi:role="line">Preferred media</tspan></text>
</g><g
         transform="translate(3.2,0)"
         id="g7721"><g
           transform="matrix(0.43923,0,0,0.43923,1.5384913,5.0617911)"
           id="g6674"><path
             d="m 93.41,254.73 7.09,0 0,7.92 -7.09,0 0,-7.92 z"
             style="fill:#bdbdbd;fill-opacity:0.30199998;fill-rule:nonzero;stroke:#000000;stroke-width:1.07000005;stroke-linecap:round;stroke-linejoin:miter;stroke-miterlimit:10;stroke-dasharray:none;stroke-opacity:1"
             id="path6676"
             inkscape:connector-curvature="0" /></g><g
           transform="matrix(0.43923,0,0,0.43923,1.5384913,5.5207123)"
           id="g6690"><text
             transform="matrix(1,0,0,-1,103.37,254.03)"
             style="font-variant:normal;font-weight:normal;font-size:13px;font-family:Helvetica;-inkscape-font-specification:Helvetica;writing-mode:lr-tb;fill:#000000;fill-opacity:1;fill-rule:nonzero;stroke:none"
             id="text6692"><tspan
               sodipodi:role="line"
               id="tspan6694"
               x="0"
               y="0"
               style="font-size:13.66026878px">no preferrence</tspan></text>
</g></g><g
         transform="translate(3.2,-3.2)"
         id="g7728"><g
           transform="matrix(0.43923,0,0,0.43923,1.5384913,5.6184339)"
           id="g6684"><path
             d="m 93.41,245.4 7.09,0 0,7.92 -7.09,0 0,-7.92 z"
             style="fill:#000000;fill-opacity:0.30199998;fill-rule:nonzero;stroke:#000000;stroke-width:1.07000005;stroke-linecap:round;stroke-linejoin:miter;stroke-miterlimit:10;stroke-dasharray:none;stroke-opacity:1"
             id="path6686"
             inkscape:connector-curvature="0" /></g><g
           transform="matrix(0.43923,0,0,0.43923,1.5384913,5.5207123)"
           id="g6698"><text
             transform="matrix(1,0,0,-1,103.37,244.69)"
             style="font-variant:normal;font-weight:normal;font-size:13px;font-family:Helvetica;-inkscape-font-specification:Helvetica;writing-mode:lr-tb;fill:#000000;fill-opacity:1;fill-rule:nonzero;stroke:none"
             id="text6700"><tspan
               sodipodi:role="line"
               id="tspan6702"
               x="0"
               y="0"
               style="font-size:13.66026878px">defined</tspan></text>
</g></g></g><text
       xml:space="preserve"
       style="font-style:normal;font-variant:normal;font-weight:normal;font-stretch:normal;font-size:8px;line-height:125%;font-family:Helvetica;-inkscape-font-specification:Helvetica;letter-spacing:0px;word-spacing:0px;fill:#000000;fill-opacity:1;stroke:none;stroke-width:1px;stroke-linecap:butt;stroke-linejoin:miter;stroke-opacity:1"
       x="174.39999"
       y="-67.762489"
       id="text3457"
       sodipodi:linespacing="125%"
       transform="scale(1,-1)"><tspan
         sodipodi:role="line"
         id="tspan3459"
         x="174.39999"
         y="-67.762489">n=11</tspan></text>
<text
       xml:space="preserve"
       style="font-style:normal;font-variant:normal;font-weight:normal;font-stretch:normal;font-size:8px;line-height:125%;font-family:Helvetica;-inkscape-font-specification:Helvetica;letter-spacing:0px;word-spacing:0px;fill:#000000;fill-opacity:1;stroke:none;stroke-width:1px;stroke-linecap:butt;stroke-linejoin:miter;stroke-opacity:1"
       x="51.353909"
       y="-67.762489"
       id="text3457-2"
       sodipodi:linespacing="125%"
       transform="scale(1,-1)"><tspan
         sodipodi:role="line"
         id="tspan3459-6"
         x="51.353909"
         y="-67.762489">n=64</tspan></text>
</g></svg>